<svg width="9" height="17" viewBox="0 0 9 17" fill="none" xmlns="http://www.w3.org/2000/svg">
<path d="M0.363061 7.90226V7.91171H-8.58307e-06H-0.125009V8.03671V8.98221V9.10721H-8.58307e-06H0.488061C2.14041 9.10721 3.31705 9.42994 4.21034 9.9214C5.10401 10.4131 5.72351 11.0787 6.255 11.7807L6.25508 11.7808C7.08042 12.8684 7.4895 14.0531 7.69193 14.9682C7.79307 15.4254 7.84238 15.814 7.86639 16.0879C7.87839 16.2248 7.88406 16.3328 7.88673 16.4063C7.88807 16.443 7.88866 16.4711 7.88891 16.4898L7.8891 16.5106L7.8891 16.5156L7.8891 16.5167L7.8891 16.5169L0.363061 7.90226ZM0.363061 7.90226H0.488061C2.14025 7.90226 3.31688 7.57723 4.21024 7.08458C5.10399 6.59171 5.72356 5.92602 6.25517 5.22855C7.90178 3.05862 7.8989 0.524169 7.89885 0.482581L7.89885 0.482208V0.00946045V-0.11554H8.02385H8.99999H9.12499V0.00946045V0.472753C9.12499 0.473783 9.12499 0.475013 9.125 0.476442C9.12519 0.641214 9.12855 3.44794 7.24501 5.93749L7.24496 5.93757C6.5056 6.91331 5.53531 7.89641 3.97938 8.50001L0.363061 7.90226Z" fill="black" stroke="black" stroke-width="0.25"/>
</svg>
